<svg xmlns="http://www.w3.org/2000/svg" width="656" height="165" fill="none" viewBox="0 0 656 165"><path fill="#000" d="M656 3.03308H0V161.967H656V3.03308Z"/><path fill="#fff" d="M77.8414 67.3346C77.2588 67.3346 76.8122 67.2376 76.5015 67.0434C76.2296 66.8105 76.0354 66.4223 75.9189 65.8787L66.7143 29.1323C66.6754 29.0158 66.656 28.8411 66.656 28.6081C66.656 28.0258 67.025 27.7346 67.7629 27.7346H72.4817C73.0643 27.7346 73.4721 27.8317 73.7051 28.0258C73.9382 28.2199 74.0935 28.5305 74.1712 28.9576L79.9969 54.5811L86.9878 31.9858C87.1431 31.5199 87.3179 31.2093 87.5121 31.054C87.7451 30.8599 88.1141 30.7629 88.619 30.7629H91.2988C91.8037 30.7629 92.1532 30.8599 92.3474 31.054C92.5804 31.2093 92.7746 31.5199 92.93 31.9858L99.9791 54.5811L105.747 28.9576C105.824 28.5305 105.98 28.2199 106.213 28.0258C106.484 27.8317 106.892 27.7346 107.436 27.7346H112.213C112.951 27.7346 113.32 28.0258 113.32 28.6081C113.32 28.8411 113.301 29.0158 113.262 29.1323L103.999 65.8787C103.844 66.4223 103.61 66.8105 103.3 67.0434C103.028 67.2376 102.62 67.3346 102.076 67.3346H98.9305C98.3867 67.3346 97.9595 67.2376 97.6488 67.0434C97.377 66.8105 97.1633 66.4223 97.008 65.8787L89.9589 42.5846L82.968 65.8787C82.8127 66.4223 82.5796 66.8105 82.2689 67.0434C81.9971 67.2376 81.5893 67.3346 81.0455 67.3346H77.8414ZM110.807 67.3346C110.03 67.3346 109.467 67.1599 109.118 66.8105C108.768 66.4611 108.593 65.937 108.593 65.2381V29.307C108.593 28.7246 108.69 28.317 108.885 28.084C109.079 27.8511 109.487 27.7346 110.108 27.7346H114.128C114.749 27.7346 115.157 27.8511 115.351 28.084C115.584 28.317 115.701 28.7246 115.701 29.307V42.3517C116.982 41.0705 118.478 40.1193 120.186 39.4981C121.895 38.8381 123.915 38.5081 126.245 38.5081C129.391 38.5081 131.916 39.3623 133.819 41.0705C135.761 42.7399 136.731 45.2634 136.731 48.6411V65.2381C136.731 65.937 136.557 66.4611 136.207 66.8105C135.896 67.1599 135.353 67.3346 134.576 67.3346H131.488C130.712 67.3346 130.148 67.1599 129.799 66.8105C129.449 66.4611 129.275 65.937 129.275 65.2381V49.107C129.275 47.2046 128.809 45.8652 127.876 45.0887C126.983 44.2734 125.604 43.8658 123.74 43.8658C122.458 43.8658 121.216 44.1181 120.012 44.6228C118.847 45.1276 117.895 45.8264 117.157 46.7193C116.419 47.6123 116.05 48.6411 116.05 49.8058V65.2381C116.05 65.937 115.875 66.4611 115.526 66.8105C115.215 67.1599 114.652 67.3346 113.836 67.3346H110.807ZM146.152 68.2081C142.345 68.2081 139.316 67.0628 137.063 64.7723C134.811 62.4428 133.685 59.1817 133.685 54.9887C133.685 51.7276 134.403 48.8546 135.84 46.3699C137.277 43.8464 139.316 41.9052 141.957 40.5464C144.637 39.1876 147.744 38.5081 151.278 38.5081C156.211 38.5081 160.386 39.6728 163.803 42.0023V65.7623C163.803 66.3446 163.668 66.7523 163.396 66.9852C163.163 67.2181 162.735 67.3346 162.114 67.3346H158.91C158.483 67.3346 158.153 67.257 157.92 67.1017C157.725 66.9076 157.589 66.6164 157.512 66.2281L157.046 63.957C155.842 65.4323 154.346 66.5193 152.56 67.2181C150.812 67.8781 148.676 68.2081 146.152 68.2081ZM148.948 62.9087C151.006 62.9087 152.812 62.307 154.366 61.1034C155.958 59.8999 156.754 58.3081 156.754 56.3281V44.9723C155.939 44.5452 155.104 44.254 154.249 44.0987C153.434 43.9046 152.424 43.8076 151.22 43.8076C148.152 43.8076 145.686 44.7781 143.821 46.7193C141.957 48.6605 141.025 51.3393 141.025 54.7558C141.025 57.5511 141.666 59.6087 142.947 60.9287C144.268 62.2487 146.268 62.9087 148.948 62.9087ZM172.788 68.2081C169.487 68.2081 167.002 67.2958 165.332 65.4711C163.661 63.6464 162.826 61.1228 162.826 57.9005V44.8558H159.506C158.729 44.8558 158.205 44.7199 157.933 44.4481C157.7 44.1764 157.583 43.6717 157.583 42.934V41.3617C157.583 40.624 157.7 40.1193 157.933 39.8476C158.205 39.537 158.729 39.3817 159.506 39.3817H162.826V36.1787C162.826 35.3634 162.962 34.6064 163.234 33.9076C163.545 33.1699 164.011 32.2576 164.632 31.1705C164.865 30.7046 165.079 30.4134 165.273 30.297C165.506 30.1417 165.895 30.064 166.438 30.064H168.361C169.06 30.064 169.545 30.2387 169.817 30.5881C170.128 30.8987 170.283 31.384 170.283 32.044V39.3817H177.158C177.934 39.3817 178.439 39.537 178.672 39.8476C178.944 40.1193 179.08 40.624 179.08 41.3617V42.934C179.08 43.6717 178.944 44.1764 178.672 44.4481C178.439 44.7199 177.934 44.8558 177.158 44.8558H170.283V57.6676C170.283 59.4534 170.594 60.754 171.216 61.5693C171.837 62.3458 172.905 62.734 174.42 62.734C175.313 62.734 176.07 62.637 176.692 62.4428C177.313 62.2099 177.993 61.8411 178.731 61.3364C178.925 61.1811 179.138 61.1034 179.371 61.1034C179.605 61.1034 179.838 61.2781 180.071 61.6276L181.76 64.4228C181.915 64.617 181.993 64.8305 181.993 65.0634C181.993 65.3352 181.799 65.607 181.411 65.8787C179.003 67.4317 176.129 68.2081 172.788 68.2081ZM188.462 68.2081C186.132 68.2081 183.86 67.9558 181.646 67.4511C179.432 66.9852 177.529 66.267 175.937 65.2964C175.432 65.0246 175.179 64.7334 175.179 64.4228C175.179 64.1899 175.257 63.9764 175.412 63.7823L177.044 60.9287C177.238 60.5793 177.432 60.4046 177.626 60.4046C177.82 60.4046 178.073 60.5017 178.384 60.6958C179.549 61.3946 180.986 61.977 182.695 62.4428C184.403 62.9087 185.976 63.1417 187.413 63.1417C189.627 63.1417 191.2 62.9281 192.132 62.5011C193.103 62.0352 193.589 61.2199 193.589 60.0552C193.589 59.3952 193.394 58.8711 193.006 58.4828C192.657 58.0558 192.113 57.687 191.375 57.3764C190.637 57.0658 189.414 56.6387 187.705 56.0952C187.705 56.0952 187.064 55.8817 185.782 55.4546C183.568 54.717 181.801 53.9987 180.481 53.2999C179.16 52.6011 178.131 51.7276 177.393 50.6793C176.694 49.5923 176.345 48.2334 176.345 46.6028C176.345 43.9628 177.451 41.9634 179.665 40.6046C181.918 39.207 184.831 38.5081 188.404 38.5081C192.754 38.5081 196.502 39.4399 199.647 41.3034C200.152 41.5752 200.405 41.8664 200.405 42.177C200.405 42.3711 200.308 42.6234 200.113 42.934L198.541 45.4381C198.308 45.7876 198.113 45.9623 197.958 45.9623C197.803 45.9623 197.57 45.8652 197.259 45.6711C196.249 45.0499 195.026 44.5646 193.589 44.2152C192.191 43.827 190.773 43.6329 189.336 43.6329C187.394 43.6329 185.957 43.8464 185.025 44.2734C184.132 44.6617 183.685 45.4381 183.685 46.6028C183.685 47.6123 184.209 48.4081 185.258 48.9905C186.345 49.5728 188.21 50.2717 190.851 51.087L192.773 51.6693C195.802 52.6399 197.919 53.7852 199.123 55.1052C200.366 56.4252 200.987 58.0752 200.987 60.0552C200.987 62.4623 199.919 64.4228 197.783 65.937C195.686 67.4511 192.579 68.2081 188.462 68.2081ZM235.366 68.2081C228.958 68.2081 224.026 66.4028 220.569 62.7923C217.151 59.1817 215.442 54.0958 215.442 47.5346C215.442 40.9734 217.151 35.8876 220.569 32.277C224.026 28.6664 228.958 26.8611 235.366 26.8611C241.736 26.8611 246.649 28.6664 250.105 32.277C253.562 35.8876 255.29 40.9734 255.29 47.5346C255.29 54.0958 253.562 59.1817 250.105 62.7923C246.649 66.4028 241.736 68.2081 235.366 68.2081ZM235.366 62.734C239.444 62.734 242.551 61.4529 244.688 58.8905C246.824 56.2893 247.892 52.504 247.892 47.5346C247.892 42.5652 246.824 38.7993 244.688 36.237C242.551 33.6746 239.444 32.3934 235.366 32.3934C231.288 32.3934 228.162 33.6746 225.987 36.237C223.851 38.7993 222.783 42.5652 222.783 47.5346C222.783 52.504 223.851 56.2893 225.987 58.8905C228.162 61.4529 231.288 62.734 235.366 62.734ZM254.167 67.3346C253.39 67.3346 252.827 67.1599 252.478 66.8105C252.128 66.4611 251.953 65.937 251.953 65.2381V40.954C251.953 40.3717 252.05 39.964 252.245 39.7311C252.439 39.4981 252.847 39.3817 253.468 39.3817H256.789C257.643 39.3817 258.09 39.7699 258.129 40.5464L258.245 42.8758C260.886 39.964 264.673 38.5081 269.605 38.5081C272.751 38.5081 275.276 39.3623 277.179 41.0705C279.121 42.7399 280.091 45.2634 280.091 48.6411V65.2381C280.091 65.937 279.917 66.4611 279.567 66.8105C279.256 67.1599 278.713 67.3346 277.936 67.3346H274.848C274.072 67.3346 273.508 67.1599 273.159 66.8105C272.809 66.4611 272.635 65.937 272.635 65.2381V49.107C272.635 47.2046 272.188 45.8652 271.295 45.0887C270.44 44.2734 269.042 43.8658 267.1 43.8658C265.042 43.8658 263.236 44.4287 261.682 45.5546C260.168 46.6417 259.41 48.0587 259.41 49.8058V65.2381C259.41 65.937 259.235 66.4611 258.886 66.8105C258.575 67.1599 258.012 67.3346 257.196 67.3346H254.167Z"/><path fill="#fff" d="M297.247 128.603C296.082 128.603 295.238 128.341 294.713 127.817C294.247 127.293 294.014 126.506 294.014 125.458V72.4349C294.014 71.3285 294.247 70.5132 294.713 69.9891C295.238 69.4649 296.082 69.2029 297.247 69.2029H301.879C303.044 69.2029 303.889 69.4649 304.413 69.9891C304.937 70.5132 305.2 71.3285 305.2 72.4349V125.458C305.2 126.506 304.937 127.293 304.413 127.817C303.947 128.341 303.102 128.603 301.879 128.603H297.247ZM308.353 128.603C307.189 128.603 306.344 128.341 305.819 127.817C305.295 127.293 305.033 126.506 305.033 125.458V89.032C305.033 88.1585 305.178 87.547 305.47 87.1976C305.761 86.8482 306.373 86.6735 307.305 86.6735H312.286C313.567 86.6735 314.238 87.2558 314.296 88.4205L314.471 91.9146C318.432 87.547 324.112 85.3632 331.511 85.3632C336.23 85.3632 340.017 86.6443 342.871 89.2067C345.784 91.7108 347.241 95.4961 347.241 100.563V125.458C347.241 126.506 346.978 127.293 346.454 127.817C345.988 128.341 345.172 128.603 344.007 128.603H339.376C338.211 128.603 337.366 128.341 336.842 127.817C336.317 127.293 336.055 126.506 336.055 125.458V101.261C336.055 98.4079 335.385 96.3988 334.045 95.234C332.764 94.0111 330.666 93.3996 327.754 93.3996C324.665 93.3996 321.957 94.244 319.627 95.9329C317.355 97.5635 316.219 99.689 316.219 102.31V125.458C316.219 126.506 315.956 127.293 315.432 127.817C314.965 128.341 314.121 128.603 312.897 128.603H308.353ZM370.983 129.913C354.438 129.913 346.166 122.459 346.166 107.551C346.166 103.183 347.011 99.3396 348.7 96.0202C350.389 92.6426 352.807 90.022 355.953 88.1585C359.157 86.2949 362.915 85.3632 367.226 85.3632C373.343 85.3632 377.77 86.7317 380.508 89.4688V72.4349C380.508 71.3285 380.771 70.5132 381.295 69.9891C381.819 69.4649 382.664 69.2029 383.829 69.2029H388.198C389.364 69.2029 390.208 69.4649 390.733 69.9891C391.257 70.5132 391.519 71.3285 391.519 72.4349V124.235C389.305 125.866 386.334 127.234 382.606 128.341C378.877 129.389 375.003 129.913 370.983 129.913ZM371.246 121.964C375.149 121.964 378.236 121.265 380.508 119.868V102.048C380.508 99.194 379.518 97.0393 377.537 95.5835C375.557 94.1276 372.993 93.3996 369.847 93.3996C365.595 93.3996 362.42 94.6808 360.322 97.2432C358.225 99.8055 357.176 103.329 357.176 107.813C357.176 112.821 358.342 116.432 360.672 118.645C363.002 120.858 366.527 121.964 371.246 121.964ZM414.605 129.913C407.032 129.913 401.177 127.933 397.041 123.973C392.963 119.955 390.924 114.51 390.924 107.638C390.924 100.766 392.963 95.3505 397.041 91.3905C401.177 87.3723 407.032 85.3632 414.605 85.3632C422.179 85.3632 428.034 87.3723 432.17 91.3905C436.306 95.3505 438.374 100.766 438.374 107.638C438.374 114.51 436.306 119.955 432.17 123.973C428.034 127.933 422.179 129.913 414.605 129.913ZM414.605 121.702C418.742 121.702 421.887 120.508 424.043 118.121C426.198 115.733 427.276 112.239 427.276 107.638C427.276 103.096 426.198 99.6599 424.043 97.3305C421.887 94.9429 418.742 93.749 414.605 93.749C410.527 93.749 407.381 94.9429 405.168 97.3305C403.012 99.6599 401.934 103.096 401.934 107.638C401.934 112.181 403.012 115.675 405.168 118.121C407.381 120.508 410.527 121.702 414.605 121.702ZM440.654 128.603C439.489 128.603 438.644 128.341 438.12 127.817C437.596 127.293 437.333 126.506 437.333 125.458V89.032C437.333 88.1585 437.479 87.547 437.77 87.1976C438.062 86.8482 438.673 86.6735 439.605 86.6735H444.586C445.868 86.6735 446.538 87.2558 446.596 88.4205L446.771 91.9146C450.733 87.547 456.413 85.3632 463.811 85.3632C468.53 85.3632 472.317 86.6443 475.171 89.2067C478.084 91.7108 479.541 95.4961 479.541 100.563V125.458C479.541 126.506 479.279 127.293 478.754 127.817C478.288 128.341 477.473 128.603 476.307 128.603H471.676C470.511 128.603 469.666 128.341 469.142 127.817C468.618 127.293 468.355 126.506 468.355 125.458V101.261C468.355 98.4079 467.685 96.3988 466.345 95.234C465.064 94.0111 462.967 93.3996 460.054 93.3996C456.966 93.3996 454.257 94.244 451.927 95.9329C449.655 97.5635 448.519 99.689 448.519 102.31V125.458C448.519 126.506 448.257 127.293 447.732 127.817C447.266 128.341 446.422 128.603 445.198 128.603H440.654ZM502.41 129.913C497.866 129.913 493.758 129.156 490.088 127.642C486.418 126.07 483.476 123.682 481.262 120.479C479.107 117.218 478.029 113.171 478.029 108.337C478.029 100.825 480.039 95.1176 484.059 91.2158C488.078 87.314 493.788 85.3632 501.186 85.3632C508.527 85.3632 514.061 87.2558 517.79 91.0411C521.576 94.8264 523.47 100.301 523.47 107.463C523.47 109.502 522.538 110.521 520.673 110.521H488.603C488.603 114.364 489.943 117.334 492.622 119.431C495.302 121.469 499.031 122.488 503.808 122.488C508.41 122.488 512.546 121.44 516.217 119.343C516.624 119.11 516.945 118.994 517.178 118.994C517.586 118.994 517.906 119.256 518.139 119.78L520.236 123.536C520.411 123.886 520.499 124.206 520.499 124.497C520.499 124.905 520.236 125.283 519.712 125.633C517.324 127.089 514.731 128.166 511.935 128.865C509.197 129.564 506.022 129.913 502.41 129.913ZM513.333 104.057C513.333 100.446 512.313 97.6217 510.274 95.5835C508.294 93.5452 505.293 92.5261 501.274 92.5261C497.196 92.5261 494.05 93.5743 491.836 95.6708C489.68 97.7673 488.603 100.563 488.603 104.057H513.333ZM540.568 129.913C537.072 129.913 533.664 129.535 530.343 128.778C527.023 128.079 524.168 127.001 521.78 125.546C521.022 125.138 520.644 124.701 520.644 124.235C520.644 123.886 520.76 123.566 520.993 123.274L523.44 118.994C523.731 118.47 524.023 118.208 524.314 118.208C524.605 118.208 524.984 118.353 525.45 118.645C527.197 119.693 529.353 120.566 531.916 121.265C534.48 121.964 536.839 122.313 538.995 122.313C542.315 122.313 544.675 121.993 546.073 121.353C547.529 120.654 548.257 119.431 548.257 117.684C548.257 116.694 547.966 115.908 547.384 115.325C546.859 114.685 546.044 114.131 544.937 113.666C543.83 113.2 541.995 112.559 539.432 111.744C539.432 111.744 538.47 111.423 536.548 110.783C533.227 109.676 530.576 108.599 528.596 107.551C526.615 106.503 525.071 105.192 523.964 103.62C522.916 101.989 522.391 99.9511 522.391 97.5052C522.391 93.5452 524.052 90.5461 527.372 88.5079C530.751 86.4114 535.12 85.3632 540.48 85.3632C547.005 85.3632 552.627 86.7608 557.346 89.5561C558.103 89.9638 558.482 90.4005 558.482 90.8664C558.482 91.1576 558.336 91.5361 558.045 92.002L555.685 95.7582C555.336 96.2823 555.044 96.5443 554.811 96.5443C554.578 96.5443 554.229 96.3988 553.763 96.1076C552.248 95.1758 550.413 94.4479 548.257 93.9237C546.16 93.3414 544.034 93.0502 541.878 93.0502C538.965 93.0502 536.81 93.3705 535.412 94.0111C534.072 94.5935 533.402 95.7582 533.402 97.5052C533.402 99.0193 534.188 100.213 535.761 101.087C537.392 101.96 540.189 103.008 544.15 104.231L547.034 105.105C551.578 106.561 554.753 108.279 556.559 110.259C558.423 112.239 559.355 114.714 559.355 117.684C559.355 121.294 557.753 124.235 554.549 126.506C551.403 128.778 546.743 129.913 540.568 129.913ZM562.719 79.4232C561.32 79.4232 560.243 79.0155 559.485 78.2002C558.728 77.3849 558.349 76.3949 558.349 75.2302V73.3958C558.349 72.2311 558.728 71.2411 559.485 70.4258C560.243 69.6105 561.32 69.2029 562.719 69.2029H566.476C567.874 69.2029 568.952 69.6105 569.709 70.4258C570.525 71.2411 570.933 72.2311 570.933 73.3958V75.2302C570.933 76.3949 570.525 77.3849 569.709 78.2002C568.952 79.0155 567.874 79.4232 566.476 79.4232H562.719ZM562.369 128.603C561.204 128.603 560.359 128.341 559.835 127.817C559.311 127.293 559.048 126.506 559.048 125.458V89.9055C559.048 88.799 559.311 87.9837 559.835 87.4596C560.359 86.9355 561.204 86.6735 562.369 86.6735H566.913C568.078 86.6735 568.923 86.9355 569.447 87.4596C569.972 87.9837 570.234 88.799 570.234 89.9055V125.458C570.234 126.506 569.972 127.293 569.447 127.817C568.981 128.341 568.137 128.603 566.913 128.603H562.369ZM588.56 129.913C582.851 129.913 578.307 128.195 574.928 124.759C571.549 121.265 569.859 116.373 569.859 110.084C569.859 105.192 570.937 100.883 573.093 97.1558C575.248 93.3705 578.307 90.4587 582.268 88.4205C586.288 86.3823 590.948 85.3632 596.25 85.3632C603.648 85.3632 609.91 87.1102 615.038 90.6043V126.244C615.038 127.118 614.831 127.729 614.425 128.079C614.079 128.428 613.436 128.603 612.501 128.603H607.695C607.058 128.603 606.561 128.486 606.212 128.253C605.921 127.962 605.717 127.526 605.6 126.943L604.901 123.536C603.095 125.749 600.852 127.38 598.172 128.428C595.551 129.418 592.347 129.913 588.56 129.913ZM592.754 121.964C595.842 121.964 598.551 121.061 600.881 119.256C603.27 117.451 604.464 115.063 604.464 112.093V95.0593C603.241 94.4187 601.988 93.982 600.706 93.749C599.483 93.4579 597.968 93.3123 596.162 93.3123C591.56 93.3123 587.861 94.7682 585.064 97.6799C582.268 100.592 580.87 104.61 580.87 109.735C580.87 113.928 581.831 117.014 583.754 118.994C585.734 120.974 588.735 121.964 592.754 121.964Z"/><path fill="red" d="M294.32 72.1875H70.8219V92.2059H294.32V72.1875Z"/><path fill="red" d="M35.8038 72.1875H70.8219V92.2059L35.8038 72.1875Z"/><path fill="#fff" d="M294.32 92.2059H70.8219V112.224H294.32V92.2059Z"/><path fill="#fff" d="M35.8038 112.224H70.8219V92.2059L35.8038 112.224Z"/></svg>